<svg width="1397" height="1298" viewBox="0 0 1397 1298" fill="none" xmlns="http://www.w3.org/2000/svg">
<path d="M1103.88 1262.5C1209.88 1225.5 1320.12 1164 1368 1025.5C1436.58 827.104 1345.88 672 1134.38 510.5C1324.38 133.5 641.562 122.5 387.877 122.5C289.877 122.5 164.043 188 97.3769 304C30.7108 420 32.8767 572.684 63.877 620C94.8773 667.316 452.378 733.427 452.378 979.5C452.378 1092 503.114 1170.66 586.878 1223.5C726.506 1311.58 948.009 1316.91 1103.88 1262.5Z" fill="#868BCC"/>
<path d="M1195.37 72.6299C1244.83 155.895 1237.6 205.818 1195.37 270.13C1160.31 323.5 1136.03 332 1122.37 387.63C1087.92 527.878 1306.46 565.91 1373.87 693.63C1399.6 742.395 1402.37 792.63 1385.87 863.13C1364.41 954.807 1363.35 1050.86 1221.37 1131.13C1152.29 1170.18 1071.9 1192.31 920.365 1194.63C760.451 1197.08 650.891 1119.17 468.365 1095C316.377 1074.87 205.365 1111.5 117.877 1044.5C4.37706 957.579 -9.38527 786.5 4.37708 723C42.1965 548.5 115.865 555 205.365 413.63C270.965 310.011 261.129 241.501 334.365 143.13C374.282 89.5124 405.094 58.1936 468.365 36.6299C555.514 6.92822 600.023 30.1236 691.865 36.6299C861.897 48.6753 1108.3 -73.919 1195.37 72.6299Z" fill="#4E57CC"/>
</svg>
